<mxfile host="app.diagrams.net" agent="Mozilla/5.0 (Windows NT 10.0; Win64; x64; rv:133.0) Gecko/20100101 Firefox/133.0" version="26.0.3">
  <diagram name="Page-1" id="PfZpxKHgtrNmZmKAbsyW">
    <mxGraphModel dx="1509" dy="823" grid="1" gridSize="10" guides="1" tooltips="1" connect="1" arrows="1" fold="1" page="1" pageScale="1" pageWidth="827" pageHeight="1169" math="0" shadow="0">
      <root>
        <mxCell id="0" />
        <mxCell id="1" parent="0" />
        <mxCell id="qflXyJi8Mx2e_EzEt0WT-1" value="Layer1" style="rounded=1;whiteSpace=wrap;html=1;fillColor=none;align=center;verticalAlign=top;arcSize=4;" vertex="1" parent="1">
          <mxGeometry x="90" y="395" width="1180" height="385" as="geometry" />
        </mxCell>
        <mxCell id="qflXyJi8Mx2e_EzEt0WT-41" value="ProjektMASI.exe" style="rounded=1;whiteSpace=wrap;html=1;fillColor=none;align=center;verticalAlign=top;arcSize=4;" vertex="1" parent="1">
          <mxGeometry x="70" y="365" width="1220" height="845" as="geometry" />
        </mxCell>
        <mxCell id="qflXyJi8Mx2e_EzEt0WT-39" value="Layer2" style="rounded=1;whiteSpace=wrap;html=1;fillColor=none;align=center;verticalAlign=top;arcSize=4;" vertex="1" parent="1">
          <mxGeometry x="90" y="802.5" width="1180" height="385" as="geometry" />
        </mxCell>
        <mxCell id="qflXyJi8Mx2e_EzEt0WT-14" value="" style="group" vertex="1" connectable="0" parent="1">
          <mxGeometry x="110" y="440" width="260" height="310" as="geometry" />
        </mxCell>
        <mxCell id="qflXyJi8Mx2e_EzEt0WT-13" value="&lt;div align=&quot;center&quot;&gt;MainContentService.cs&lt;/div&gt;" style="rounded=1;whiteSpace=wrap;html=1;fillColor=none;horizontal=1;verticalAlign=top;align=center;" vertex="1" parent="qflXyJi8Mx2e_EzEt0WT-14">
          <mxGeometry width="260" height="310" as="geometry" />
        </mxCell>
        <mxCell id="qflXyJi8Mx2e_EzEt0WT-2" value="ScaleMainContentWindow() : void" style="rounded=1;whiteSpace=wrap;html=1;horizontal=1;verticalAlign=top;align=left;" vertex="1" parent="qflXyJi8Mx2e_EzEt0WT-14">
          <mxGeometry x="10" y="40" width="240" height="40" as="geometry" />
        </mxCell>
        <mxCell id="qflXyJi8Mx2e_EzEt0WT-61" value="1" style="text;html=1;align=center;verticalAlign=middle;whiteSpace=wrap;rounded=0;" vertex="1" parent="qflXyJi8Mx2e_EzEt0WT-14">
          <mxGeometry x="221" y="40" width="29" height="25" as="geometry" />
        </mxCell>
        <mxCell id="qflXyJi8Mx2e_EzEt0WT-16" value="" style="group" vertex="1" connectable="0" parent="1">
          <mxGeometry x="410" y="440" width="860" height="340" as="geometry" />
        </mxCell>
        <mxCell id="qflXyJi8Mx2e_EzEt0WT-15" value="&lt;div align=&quot;center&quot;&gt;TextBoxService.cs&lt;/div&gt;" style="rounded=1;whiteSpace=wrap;html=1;fillColor=none;horizontal=1;verticalAlign=top;align=center;" vertex="1" parent="qflXyJi8Mx2e_EzEt0WT-16">
          <mxGeometry width="260" height="310" as="geometry" />
        </mxCell>
        <mxCell id="qflXyJi8Mx2e_EzEt0WT-3" value="ClearTextFields() : void" style="rounded=1;whiteSpace=wrap;html=1;horizontal=1;verticalAlign=top;align=left;" vertex="1" parent="qflXyJi8Mx2e_EzEt0WT-16">
          <mxGeometry x="10" y="40" width="240" height="40" as="geometry" />
        </mxCell>
        <mxCell id="qflXyJi8Mx2e_EzEt0WT-4" value="IsNotEmpty() : bool" style="rounded=1;whiteSpace=wrap;html=1;horizontal=1;verticalAlign=top;align=left;" vertex="1" parent="qflXyJi8Mx2e_EzEt0WT-16">
          <mxGeometry x="10" y="105" width="240" height="40" as="geometry" />
        </mxCell>
        <mxCell id="qflXyJi8Mx2e_EzEt0WT-5" value="ScaleTextBox() : void" style="rounded=1;whiteSpace=wrap;html=1;horizontal=1;verticalAlign=top;align=left;" vertex="1" parent="qflXyJi8Mx2e_EzEt0WT-16">
          <mxGeometry x="10" y="180" width="240" height="40" as="geometry" />
        </mxCell>
        <mxCell id="qflXyJi8Mx2e_EzEt0WT-6" value="ToggleTextFields() : void" style="rounded=1;whiteSpace=wrap;html=1;horizontal=1;verticalAlign=top;align=left;" vertex="1" parent="qflXyJi8Mx2e_EzEt0WT-16">
          <mxGeometry x="10" y="250" width="240" height="40" as="geometry" />
        </mxCell>
        <mxCell id="qflXyJi8Mx2e_EzEt0WT-45" value="1" style="text;html=1;align=center;verticalAlign=middle;whiteSpace=wrap;rounded=0;" vertex="1" parent="qflXyJi8Mx2e_EzEt0WT-16">
          <mxGeometry x="820" y="-45" width="29" height="25" as="geometry" />
        </mxCell>
        <mxCell id="qflXyJi8Mx2e_EzEt0WT-49" value="2" style="text;html=1;align=center;verticalAlign=middle;whiteSpace=wrap;rounded=0;" vertex="1" parent="qflXyJi8Mx2e_EzEt0WT-16">
          <mxGeometry x="210" width="29" height="25" as="geometry" />
        </mxCell>
        <mxCell id="qflXyJi8Mx2e_EzEt0WT-50" value="1" style="text;html=1;align=center;verticalAlign=middle;whiteSpace=wrap;rounded=0;" vertex="1" parent="qflXyJi8Mx2e_EzEt0WT-16">
          <mxGeometry x="-80" width="29" height="25" as="geometry" />
        </mxCell>
        <mxCell id="qflXyJi8Mx2e_EzEt0WT-57" value="1" style="text;html=1;align=center;verticalAlign=middle;whiteSpace=wrap;rounded=0;" vertex="1" parent="qflXyJi8Mx2e_EzEt0WT-16">
          <mxGeometry x="221" y="105" width="29" height="25" as="geometry" />
        </mxCell>
        <mxCell id="qflXyJi8Mx2e_EzEt0WT-58" value="1" style="text;html=1;align=center;verticalAlign=middle;whiteSpace=wrap;rounded=0;" vertex="1" parent="qflXyJi8Mx2e_EzEt0WT-16">
          <mxGeometry x="220" y="180" width="29" height="25" as="geometry" />
        </mxCell>
        <mxCell id="qflXyJi8Mx2e_EzEt0WT-59" value="3" style="text;html=1;align=center;verticalAlign=middle;whiteSpace=wrap;rounded=0;" vertex="1" parent="qflXyJi8Mx2e_EzEt0WT-16">
          <mxGeometry x="220" y="40" width="29" height="25" as="geometry" />
        </mxCell>
        <mxCell id="qflXyJi8Mx2e_EzEt0WT-60" value="2" style="text;html=1;align=center;verticalAlign=middle;whiteSpace=wrap;rounded=0;" vertex="1" parent="qflXyJi8Mx2e_EzEt0WT-16">
          <mxGeometry x="220" y="250" width="29" height="25" as="geometry" />
        </mxCell>
        <mxCell id="qflXyJi8Mx2e_EzEt0WT-24" value="" style="group" vertex="1" connectable="0" parent="1">
          <mxGeometry x="700" y="440" width="260" height="310" as="geometry" />
        </mxCell>
        <mxCell id="qflXyJi8Mx2e_EzEt0WT-17" value="&lt;div align=&quot;center&quot;&gt;UnitermService.cs&lt;/div&gt;" style="rounded=1;whiteSpace=wrap;html=1;fillColor=none;horizontal=1;verticalAlign=top;align=center;" vertex="1" parent="qflXyJi8Mx2e_EzEt0WT-24">
          <mxGeometry width="260" height="310" as="geometry" />
        </mxCell>
        <mxCell id="qflXyJi8Mx2e_EzEt0WT-7" value="Reset() : void" style="rounded=1;whiteSpace=wrap;html=1;horizontal=1;verticalAlign=top;align=left;" vertex="1" parent="qflXyJi8Mx2e_EzEt0WT-24">
          <mxGeometry x="10" y="40" width="240" height="40" as="geometry" />
        </mxCell>
        <mxCell id="qflXyJi8Mx2e_EzEt0WT-8" value="ScaleHUTextPanel() : bool" style="rounded=1;whiteSpace=wrap;html=1;horizontal=1;verticalAlign=top;align=left;" vertex="1" parent="qflXyJi8Mx2e_EzEt0WT-24">
          <mxGeometry x="10" y="105" width="240" height="40" as="geometry" />
        </mxCell>
        <mxCell id="qflXyJi8Mx2e_EzEt0WT-9" value="ScaleVUTextPanel() : void" style="rounded=1;whiteSpace=wrap;html=1;horizontal=1;verticalAlign=top;align=left;" vertex="1" parent="qflXyJi8Mx2e_EzEt0WT-24">
          <mxGeometry x="10" y="180" width="240" height="40" as="geometry" />
        </mxCell>
        <mxCell id="qflXyJi8Mx2e_EzEt0WT-10" value="Swap() : void" style="rounded=1;whiteSpace=wrap;html=1;horizontal=1;verticalAlign=top;align=left;" vertex="1" parent="qflXyJi8Mx2e_EzEt0WT-24">
          <mxGeometry x="10" y="250" width="240" height="40" as="geometry" />
        </mxCell>
        <mxCell id="qflXyJi8Mx2e_EzEt0WT-47" value="2" style="text;html=1;align=center;verticalAlign=middle;whiteSpace=wrap;rounded=0;" vertex="1" parent="qflXyJi8Mx2e_EzEt0WT-24">
          <mxGeometry x="210" width="29" height="25" as="geometry" />
        </mxCell>
        <mxCell id="qflXyJi8Mx2e_EzEt0WT-54" value="1" style="text;html=1;align=center;verticalAlign=middle;whiteSpace=wrap;rounded=0;" vertex="1" parent="qflXyJi8Mx2e_EzEt0WT-24">
          <mxGeometry x="221" y="105" width="29" height="25" as="geometry" />
        </mxCell>
        <mxCell id="qflXyJi8Mx2e_EzEt0WT-55" value="1" style="text;html=1;align=center;verticalAlign=middle;whiteSpace=wrap;rounded=0;" vertex="1" parent="qflXyJi8Mx2e_EzEt0WT-24">
          <mxGeometry x="220" y="180" width="29" height="25" as="geometry" />
        </mxCell>
        <mxCell id="qflXyJi8Mx2e_EzEt0WT-25" value="" style="group" vertex="1" connectable="0" parent="1">
          <mxGeometry x="990" y="440" width="260" height="310" as="geometry" />
        </mxCell>
        <mxCell id="qflXyJi8Mx2e_EzEt0WT-21" value="" style="group" vertex="1" connectable="0" parent="qflXyJi8Mx2e_EzEt0WT-25">
          <mxGeometry width="260" height="310" as="geometry" />
        </mxCell>
        <mxCell id="qflXyJi8Mx2e_EzEt0WT-22" value="&lt;div align=&quot;center&quot;&gt;OverlayService.cs&lt;/div&gt;" style="rounded=1;whiteSpace=wrap;html=1;fillColor=none;horizontal=1;verticalAlign=top;align=center;" vertex="1" parent="qflXyJi8Mx2e_EzEt0WT-21">
          <mxGeometry width="260" height="310" as="geometry" />
        </mxCell>
        <mxCell id="qflXyJi8Mx2e_EzEt0WT-46" value="1" style="text;html=1;align=center;verticalAlign=middle;whiteSpace=wrap;rounded=0;" vertex="1" parent="qflXyJi8Mx2e_EzEt0WT-21">
          <mxGeometry x="210" width="29" height="25" as="geometry" />
        </mxCell>
        <mxCell id="qflXyJi8Mx2e_EzEt0WT-11" value="IconClicked() : void" style="rounded=1;whiteSpace=wrap;html=1;horizontal=1;verticalAlign=top;align=left;" vertex="1" parent="qflXyJi8Mx2e_EzEt0WT-25">
          <mxGeometry x="11" y="40" width="240" height="40" as="geometry" />
        </mxCell>
        <mxCell id="qflXyJi8Mx2e_EzEt0WT-12" value="OverlayClicked() : bool" style="rounded=1;whiteSpace=wrap;html=1;horizontal=1;verticalAlign=top;align=left;" vertex="1" parent="qflXyJi8Mx2e_EzEt0WT-25">
          <mxGeometry x="11" y="105" width="240" height="40" as="geometry" />
        </mxCell>
        <mxCell id="qflXyJi8Mx2e_EzEt0WT-40" value="" style="group;arcSize=4;" vertex="1" connectable="0" parent="1">
          <mxGeometry x="130" y="850" width="1100" height="310" as="geometry" />
        </mxCell>
        <mxCell id="qflXyJi8Mx2e_EzEt0WT-27" value="&lt;div align=&quot;center&quot;&gt;MainWindow.xaml.cs&lt;/div&gt;" style="rounded=1;whiteSpace=wrap;html=1;fillColor=none;horizontal=1;verticalAlign=top;align=center;" vertex="1" parent="qflXyJi8Mx2e_EzEt0WT-40">
          <mxGeometry width="1100" height="310" as="geometry" />
        </mxCell>
        <mxCell id="qflXyJi8Mx2e_EzEt0WT-38" value="" style="group" vertex="1" connectable="0" parent="qflXyJi8Mx2e_EzEt0WT-40">
          <mxGeometry x="13.647642679900745" y="40" width="1072.7047146401985" height="250" as="geometry" />
        </mxCell>
        <mxCell id="qflXyJi8Mx2e_EzEt0WT-32" value="Overlay_MouseDown() : void" style="rounded=1;whiteSpace=wrap;html=1;horizontal=1;verticalAlign=top;align=left;" vertex="1" parent="qflXyJi8Mx2e_EzEt0WT-38">
          <mxGeometry x="376.67493796526054" width="327.5434243176179" height="40" as="geometry" />
        </mxCell>
        <mxCell id="qflXyJi8Mx2e_EzEt0WT-33" value="ResetButton_Click() : bool" style="rounded=1;whiteSpace=wrap;html=1;horizontal=1;verticalAlign=top;align=left;" vertex="1" parent="qflXyJi8Mx2e_EzEt0WT-38">
          <mxGeometry x="376.67493796526054" y="65" width="327.5434243176179" height="40" as="geometry" />
        </mxCell>
        <mxCell id="qflXyJi8Mx2e_EzEt0WT-34" value="ScaleSlider_ValueChanged() : void" style="rounded=1;whiteSpace=wrap;html=1;horizontal=1;verticalAlign=top;align=left;" vertex="1" parent="qflXyJi8Mx2e_EzEt0WT-38">
          <mxGeometry x="376.67493796526054" y="140" width="327.5434243176179" height="40" as="geometry" />
        </mxCell>
        <mxCell id="qflXyJi8Mx2e_EzEt0WT-35" value="SwapUniterms() : void" style="rounded=1;whiteSpace=wrap;html=1;horizontal=1;verticalAlign=top;align=left;" vertex="1" parent="qflXyJi8Mx2e_EzEt0WT-38">
          <mxGeometry x="376.67493796526054" y="210" width="327.5434243176179" height="40" as="geometry" />
        </mxCell>
        <mxCell id="qflXyJi8Mx2e_EzEt0WT-36" value="TextBox_TextChangedn() : void" style="rounded=1;whiteSpace=wrap;html=1;horizontal=1;verticalAlign=top;align=left;" vertex="1" parent="qflXyJi8Mx2e_EzEt0WT-38">
          <mxGeometry x="745.1612903225806" width="327.5434243176179" height="40" as="geometry" />
        </mxCell>
        <mxCell id="qflXyJi8Mx2e_EzEt0WT-37" value="VUTextPanel_SizeChanged() : bool" style="rounded=1;whiteSpace=wrap;html=1;horizontal=1;verticalAlign=top;align=left;" vertex="1" parent="qflXyJi8Mx2e_EzEt0WT-38">
          <mxGeometry x="745.1612903225806" y="65" width="327.5434243176179" height="40" as="geometry" />
        </mxCell>
        <mxCell id="qflXyJi8Mx2e_EzEt0WT-28" value="ClearFieldsButton_Clicked() : void" style="rounded=1;whiteSpace=wrap;html=1;horizontal=1;verticalAlign=top;align=left;" vertex="1" parent="qflXyJi8Mx2e_EzEt0WT-38">
          <mxGeometry width="327.5434243176179" height="40" as="geometry" />
        </mxCell>
        <mxCell id="qflXyJi8Mx2e_EzEt0WT-29" value="HUTextPanel_SizeChanged() : bool" style="rounded=1;whiteSpace=wrap;html=1;horizontal=1;verticalAlign=top;align=left;" vertex="1" parent="qflXyJi8Mx2e_EzEt0WT-38">
          <mxGeometry y="65" width="327.5434243176179" height="40" as="geometry" />
        </mxCell>
        <mxCell id="qflXyJi8Mx2e_EzEt0WT-30" value="IconMouseDown() : void" style="rounded=1;whiteSpace=wrap;html=1;horizontal=1;verticalAlign=top;align=left;" vertex="1" parent="qflXyJi8Mx2e_EzEt0WT-38">
          <mxGeometry y="140" width="327.5434243176179" height="40" as="geometry" />
        </mxCell>
        <mxCell id="qflXyJi8Mx2e_EzEt0WT-31" value="MainWindow() : void" style="rounded=1;whiteSpace=wrap;html=1;horizontal=1;verticalAlign=top;align=left;" vertex="1" parent="qflXyJi8Mx2e_EzEt0WT-38">
          <mxGeometry y="210" width="327.5434243176179" height="40" as="geometry" />
        </mxCell>
        <mxCell id="qflXyJi8Mx2e_EzEt0WT-62" value="1" style="text;html=1;align=center;verticalAlign=middle;whiteSpace=wrap;rounded=0;" vertex="1" parent="qflXyJi8Mx2e_EzEt0WT-38">
          <mxGeometry x="298.54235732009926" y="65" width="29" height="25" as="geometry" />
        </mxCell>
        <mxCell id="qflXyJi8Mx2e_EzEt0WT-63" value="1" style="text;html=1;align=center;verticalAlign=middle;whiteSpace=wrap;rounded=0;" vertex="1" parent="qflXyJi8Mx2e_EzEt0WT-38">
          <mxGeometry x="297.54235732009926" y="140" width="29" height="25" as="geometry" />
        </mxCell>
        <mxCell id="qflXyJi8Mx2e_EzEt0WT-64" value="1" style="text;html=1;align=center;verticalAlign=middle;whiteSpace=wrap;rounded=0;" vertex="1" parent="qflXyJi8Mx2e_EzEt0WT-38">
          <mxGeometry x="297.54235732009926" width="29" height="25" as="geometry" />
        </mxCell>
        <mxCell id="qflXyJi8Mx2e_EzEt0WT-65" value="1" style="text;html=1;align=center;verticalAlign=middle;whiteSpace=wrap;rounded=0;" vertex="1" parent="qflXyJi8Mx2e_EzEt0WT-38">
          <mxGeometry x="297.54235732009926" y="210" width="29" height="25" as="geometry" />
        </mxCell>
        <mxCell id="qflXyJi8Mx2e_EzEt0WT-66" value="1" style="text;html=1;align=center;verticalAlign=middle;whiteSpace=wrap;rounded=0;" vertex="1" parent="qflXyJi8Mx2e_EzEt0WT-38">
          <mxGeometry x="675.2223573200993" y="65" width="29" height="25" as="geometry" />
        </mxCell>
        <mxCell id="qflXyJi8Mx2e_EzEt0WT-67" value="1" style="text;html=1;align=center;verticalAlign=middle;whiteSpace=wrap;rounded=0;" vertex="1" parent="qflXyJi8Mx2e_EzEt0WT-38">
          <mxGeometry x="674.2223573200993" y="140" width="29" height="25" as="geometry" />
        </mxCell>
        <mxCell id="qflXyJi8Mx2e_EzEt0WT-68" value="1" style="text;html=1;align=center;verticalAlign=middle;whiteSpace=wrap;rounded=0;" vertex="1" parent="qflXyJi8Mx2e_EzEt0WT-38">
          <mxGeometry x="674.2223573200993" width="29" height="25" as="geometry" />
        </mxCell>
        <mxCell id="qflXyJi8Mx2e_EzEt0WT-69" value="1" style="text;html=1;align=center;verticalAlign=middle;whiteSpace=wrap;rounded=0;" vertex="1" parent="qflXyJi8Mx2e_EzEt0WT-38">
          <mxGeometry x="674.2223573200993" y="210" width="29" height="25" as="geometry" />
        </mxCell>
        <mxCell id="qflXyJi8Mx2e_EzEt0WT-70" value="1" style="text;html=1;align=center;verticalAlign=middle;whiteSpace=wrap;rounded=0;" vertex="1" parent="qflXyJi8Mx2e_EzEt0WT-38">
          <mxGeometry x="1043.702357320099" y="65" width="29" height="25" as="geometry" />
        </mxCell>
        <mxCell id="qflXyJi8Mx2e_EzEt0WT-71" value="2" style="text;html=1;align=center;verticalAlign=middle;whiteSpace=wrap;rounded=0;" vertex="1" parent="qflXyJi8Mx2e_EzEt0WT-38">
          <mxGeometry x="1042.702357320099" width="29" height="25" as="geometry" />
        </mxCell>
        <mxCell id="qflXyJi8Mx2e_EzEt0WT-72" value="1" style="text;html=1;align=center;verticalAlign=middle;whiteSpace=wrap;rounded=0;" vertex="1" parent="qflXyJi8Mx2e_EzEt0WT-40">
          <mxGeometry x="1057.35" y="10" width="29" height="25" as="geometry" />
        </mxCell>
        <mxCell id="qflXyJi8Mx2e_EzEt0WT-42" value="1" style="text;html=1;align=center;verticalAlign=middle;whiteSpace=wrap;rounded=0;" vertex="1" parent="1">
          <mxGeometry x="1230" y="365" width="60" height="30" as="geometry" />
        </mxCell>
        <mxCell id="qflXyJi8Mx2e_EzEt0WT-51" value="1" style="text;html=1;align=center;verticalAlign=middle;whiteSpace=wrap;rounded=0;" vertex="1" parent="1">
          <mxGeometry x="1212" y="480" width="29" height="25" as="geometry" />
        </mxCell>
        <mxCell id="qflXyJi8Mx2e_EzEt0WT-52" value="1" style="text;html=1;align=center;verticalAlign=middle;whiteSpace=wrap;rounded=0;" vertex="1" parent="1">
          <mxGeometry x="1212" y="540" width="29" height="25" as="geometry" />
        </mxCell>
        <mxCell id="qflXyJi8Mx2e_EzEt0WT-53" value="1" style="text;html=1;align=center;verticalAlign=middle;whiteSpace=wrap;rounded=0;" vertex="1" parent="1">
          <mxGeometry x="920" y="480" width="29" height="25" as="geometry" />
        </mxCell>
        <mxCell id="qflXyJi8Mx2e_EzEt0WT-56" value="2" style="text;html=1;align=center;verticalAlign=middle;whiteSpace=wrap;rounded=0;" vertex="1" parent="1">
          <mxGeometry x="920" y="690" width="29" height="25" as="geometry" />
        </mxCell>
        <mxCell id="qflXyJi8Mx2e_EzEt0WT-73" value="1" style="text;html=1;align=center;verticalAlign=middle;whiteSpace=wrap;rounded=0;" vertex="1" parent="1">
          <mxGeometry x="1220" y="802.5" width="60" height="30" as="geometry" />
        </mxCell>
      </root>
    </mxGraphModel>
  </diagram>
</mxfile>
